<?xml version="1.0" encoding="UTF-8" standalone="no"?>
<svg
   width="460.8pt"
   height="345.6pt"
   viewBox="0 0 460.8 345.6"
   version="1.1"
   id="svg149"
   sodipodi:docname="charging.svg"
   inkscape:version="1.3.2 (091e20ef0f, 2023-11-25, custom)"
   xmlns:inkscape="http://www.inkscape.org/namespaces/inkscape"
   xmlns:sodipodi="http://sodipodi.sourceforge.net/DTD/sodipodi-0.dtd"
   xmlns:xlink="http://www.w3.org/1999/xlink"
   xmlns="http://www.w3.org/2000/svg"
   xmlns:svg="http://www.w3.org/2000/svg"
   xmlns:rdf="http://www.w3.org/1999/02/22-rdf-syntax-ns#"
   xmlns:cc="http://creativecommons.org/ns#"
   xmlns:dc="http://purl.org/dc/elements/1.1/">
  <sodipodi:namedview
     id="namedview149"
     pagecolor="#ffffff"
     bordercolor="#cccccc"
     borderopacity="1"
     inkscape:showpageshadow="0"
     inkscape:pageopacity="1"
     inkscape:pagecheckerboard="0"
     inkscape:deskcolor="#d1d1d1"
     inkscape:document-units="pt"
     inkscape:zoom="1.1589735"
     inkscape:cx="307.5998"
     inkscape:cy="235.9847"
     inkscape:window-width="1882"
     inkscape:window-height="1061"
     inkscape:window-x="0"
     inkscape:window-y="0"
     inkscape:window-maximized="1"
     inkscape:current-layer="svg149" />
  <metadata
     id="metadata1">
    <rdf:RDF>
      <cc:Work>
        <dc:type
           rdf:resource="http://purl.org/dc/dcmitype/StillImage" />
        <dc:date>2024-06-25T08:23:08.629413</dc:date>
        <dc:format>image/svg+xml</dc:format>
        <dc:creator>
          <cc:Agent>
            <dc:title>Matplotlib v3.8.4, https://matplotlib.org/</dc:title>
          </cc:Agent>
        </dc:creator>
      </cc:Work>
    </rdf:RDF>
  </metadata>
  <defs
     id="defs1">
    <style
       type="text/css"
       id="style1">*{stroke-linejoin: round; stroke-linecap: butt}</style>
  </defs>
  <g
     id="figure_1">
    <g
       id="patch_1">
      <path
         d="M 0 345.6  L 460.8 345.6  L 460.8 0  L 0 0  z "
         style="fill: #ffffff"
         id="path1" />
    </g>
    <g
       id="axes_1">
      <g
         id="patch_2">
        <path
           d="M 57.6 276.48  L 414.72 276.48  L 414.72 41.472  L 57.6 41.472  z "
           style="fill: #ffffff"
           id="path2" />
      </g>
      <g
         id="matplotlib.axis_1">
        <g
           id="xtick_1">
          <g
             id="line2d_1">
            <path
               d="M 66.11736 276.48  L 66.11736 41.472  "
               clip-path="url(#pa86d6bbaa6)"
               style="fill: none; stroke: #b0b0b0; stroke-width: 0.8; stroke-linecap: square"
               id="path3" />
          </g>
          <g
             id="line2d_2">
            <defs
               id="defs3">
              <path
                 id="m3e6bd06e8e"
                 d="M 0 0  L 0 3.5  "
                 style="stroke: #000000; stroke-width: 0.8" />
            </defs>
            <g
               id="g3">
              <use
                 xlink:href="#m3e6bd06e8e"
                 x="66.11736"
                 y="276.48"
                 style="stroke: #000000; stroke-width: 0.8"
                 id="use3" />
            </g>
          </g>
          <g
             id="text_1">
            <!-- 2020-01 -->
            <g
               transform="translate(28.892539 310.951846) rotate(-30) scale(0.1 -0.1)"
               id="g10">
              <defs
                 id="defs4">
                <path
                   id="DejaVuSans-32"
                   d="M 1228 531  L 3431 531  L 3431 0  L 469 0  L 469 531  Q 828 903 1448 1529  Q 2069 2156 2228 2338  Q 2531 2678 2651 2914  Q 2772 3150 2772 3378  Q 2772 3750 2511 3984  Q 2250 4219 1831 4219  Q 1534 4219 1204 4116  Q 875 4013 500 3803  L 500 4441  Q 881 4594 1212 4672  Q 1544 4750 1819 4750  Q 2544 4750 2975 4387  Q 3406 4025 3406 3419  Q 3406 3131 3298 2873  Q 3191 2616 2906 2266  Q 2828 2175 2409 1742  Q 1991 1309 1228 531  z "
                   transform="scale(0.015625)" />
                <path
                   id="DejaVuSans-30"
                   d="M 2034 4250  Q 1547 4250 1301 3770  Q 1056 3291 1056 2328  Q 1056 1369 1301 889  Q 1547 409 2034 409  Q 2525 409 2770 889  Q 3016 1369 3016 2328  Q 3016 3291 2770 3770  Q 2525 4250 2034 4250  z M 2034 4750  Q 2819 4750 3233 4129  Q 3647 3509 3647 2328  Q 3647 1150 3233 529  Q 2819 -91 2034 -91  Q 1250 -91 836 529  Q 422 1150 422 2328  Q 422 3509 836 4129  Q 1250 4750 2034 4750  z "
                   transform="scale(0.015625)" />
                <path
                   id="DejaVuSans-2d"
                   d="M 313 2009  L 1997 2009  L 1997 1497  L 313 1497  L 313 2009  z "
                   transform="scale(0.015625)" />
                <path
                   id="DejaVuSans-31"
                   d="M 794 531  L 1825 531  L 1825 4091  L 703 3866  L 703 4441  L 1819 4666  L 2450 4666  L 2450 531  L 3481 531  L 3481 0  L 794 0  L 794 531  z "
                   transform="scale(0.015625)" />
              </defs>
              <use
                 xlink:href="#DejaVuSans-32"
                 id="use4" />
              <use
                 xlink:href="#DejaVuSans-30"
                 x="63.623047"
                 id="use5" />
              <use
                 xlink:href="#DejaVuSans-32"
                 x="127.246094"
                 id="use6" />
              <use
                 xlink:href="#DejaVuSans-30"
                 x="190.869141"
                 id="use7" />
              <use
                 xlink:href="#DejaVuSans-2d"
                 x="254.492188"
                 id="use8" />
              <use
                 xlink:href="#DejaVuSans-30"
                 x="290.576172"
                 id="use9" />
              <use
                 xlink:href="#DejaVuSans-31"
                 x="354.199219"
                 id="use10" />
            </g>
          </g>
        </g>
        <g
           id="xtick_2">
          <g
             id="line2d_3">
            <path
               d="M 103.06991 276.48  L 103.06991 41.472  "
               clip-path="url(#pa86d6bbaa6)"
               style="fill: none; stroke: #b0b0b0; stroke-width: 0.8; stroke-linecap: square"
               id="path10" />
          </g>
          <g
             id="line2d_4">
            <g
               id="g11">
              <use
                 xlink:href="#m3e6bd06e8e"
                 x="103.06991"
                 y="276.48"
                 style="stroke: #000000; stroke-width: 0.8"
                 id="use11" />
            </g>
          </g>
          <g
             id="text_2">
            <!-- 2020-07 -->
            <g
               transform="translate(65.845089 310.951846) rotate(-30) scale(0.1 -0.1)"
               id="g18">
              <defs
                 id="defs11">
                <path
                   id="DejaVuSans-37"
                   d="M 525 4666  L 3525 4666  L 3525 4397  L 1831 0  L 1172 0  L 2766 4134  L 525 4134  L 525 4666  z "
                   transform="scale(0.015625)" />
              </defs>
              <use
                 xlink:href="#DejaVuSans-32"
                 id="use12" />
              <use
                 xlink:href="#DejaVuSans-30"
                 x="63.623047"
                 id="use13" />
              <use
                 xlink:href="#DejaVuSans-32"
                 x="127.246094"
                 id="use14" />
              <use
                 xlink:href="#DejaVuSans-30"
                 x="190.869141"
                 id="use15" />
              <use
                 xlink:href="#DejaVuSans-2d"
                 x="254.492188"
                 id="use16" />
              <use
                 xlink:href="#DejaVuSans-30"
                 x="290.576172"
                 id="use17" />
              <use
                 xlink:href="#DejaVuSans-37"
                 x="354.199219"
                 id="use18" />
            </g>
          </g>
        </g>
        <g
           id="xtick_3">
          <g
             id="line2d_5">
            <path
               d="M 140.428531 276.48  L 140.428531 41.472  "
               clip-path="url(#pa86d6bbaa6)"
               style="fill: none; stroke: #b0b0b0; stroke-width: 0.8; stroke-linecap: square"
               id="path18" />
          </g>
          <g
             id="line2d_6">
            <g
               id="g19">
              <use
                 xlink:href="#m3e6bd06e8e"
                 x="140.428531"
                 y="276.48"
                 style="stroke: #000000; stroke-width: 0.8"
                 id="use19" />
            </g>
          </g>
          <g
             id="text_3">
            <!-- 2021-01 -->
            <g
               transform="translate(103.203711 310.951846) rotate(-30) scale(0.1 -0.1)"
               id="g26">
              <use
                 xlink:href="#DejaVuSans-32"
                 id="use20" />
              <use
                 xlink:href="#DejaVuSans-30"
                 x="63.623047"
                 id="use21" />
              <use
                 xlink:href="#DejaVuSans-32"
                 x="127.246094"
                 id="use22" />
              <use
                 xlink:href="#DejaVuSans-31"
                 x="190.869141"
                 id="use23" />
              <use
                 xlink:href="#DejaVuSans-2d"
                 x="254.492188"
                 id="use24" />
              <use
                 xlink:href="#DejaVuSans-30"
                 x="290.576172"
                 id="use25" />
              <use
                 xlink:href="#DejaVuSans-31"
                 x="354.199219"
                 id="use26" />
            </g>
          </g>
        </g>
        <g
           id="xtick_4">
          <g
             id="line2d_7">
            <path
               d="M 177.178045 276.48  L 177.178045 41.472  "
               clip-path="url(#pa86d6bbaa6)"
               style="fill: none; stroke: #b0b0b0; stroke-width: 0.8; stroke-linecap: square"
               id="path26" />
          </g>
          <g
             id="line2d_8">
            <g
               id="g27">
              <use
                 xlink:href="#m3e6bd06e8e"
                 x="177.178045"
                 y="276.48"
                 style="stroke: #000000; stroke-width: 0.8"
                 id="use27" />
            </g>
          </g>
          <g
             id="text_4">
            <!-- 2021-07 -->
            <g
               transform="translate(139.953225 310.951846) rotate(-30) scale(0.1 -0.1)"
               id="g34">
              <use
                 xlink:href="#DejaVuSans-32"
                 id="use28" />
              <use
                 xlink:href="#DejaVuSans-30"
                 x="63.623047"
                 id="use29" />
              <use
                 xlink:href="#DejaVuSans-32"
                 x="127.246094"
                 id="use30" />
              <use
                 xlink:href="#DejaVuSans-31"
                 x="190.869141"
                 id="use31" />
              <use
                 xlink:href="#DejaVuSans-2d"
                 x="254.492188"
                 id="use32" />
              <use
                 xlink:href="#DejaVuSans-30"
                 x="290.576172"
                 id="use33" />
              <use
                 xlink:href="#DejaVuSans-37"
                 x="354.199219"
                 id="use34" />
            </g>
          </g>
        </g>
        <g
           id="xtick_5">
          <g
             id="line2d_9">
            <path
               d="M 214.536667 276.48  L 214.536667 41.472  "
               clip-path="url(#pa86d6bbaa6)"
               style="fill: none; stroke: #b0b0b0; stroke-width: 0.8; stroke-linecap: square"
               id="path34" />
          </g>
          <g
             id="line2d_10">
            <g
               id="g35">
              <use
                 xlink:href="#m3e6bd06e8e"
                 x="214.536667"
                 y="276.48"
                 style="stroke: #000000; stroke-width: 0.8"
                 id="use35" />
            </g>
          </g>
          <g
             id="text_5">
            <!-- 2022-01 -->
            <g
               transform="translate(177.311846 310.951846) rotate(-30) scale(0.1 -0.1)"
               id="g42">
              <use
                 xlink:href="#DejaVuSans-32"
                 id="use36" />
              <use
                 xlink:href="#DejaVuSans-30"
                 x="63.623047"
                 id="use37" />
              <use
                 xlink:href="#DejaVuSans-32"
                 x="127.246094"
                 id="use38" />
              <use
                 xlink:href="#DejaVuSans-32"
                 x="190.869141"
                 id="use39" />
              <use
                 xlink:href="#DejaVuSans-2d"
                 x="254.492188"
                 id="use40" />
              <use
                 xlink:href="#DejaVuSans-30"
                 x="290.576172"
                 id="use41" />
              <use
                 xlink:href="#DejaVuSans-31"
                 x="354.199219"
                 id="use42" />
            </g>
          </g>
        </g>
        <g
           id="xtick_6">
          <g
             id="line2d_11">
            <path
               d="M 251.286181 276.48  L 251.286181 41.472  "
               clip-path="url(#pa86d6bbaa6)"
               style="fill: none; stroke: #b0b0b0; stroke-width: 0.8; stroke-linecap: square"
               id="path42" />
          </g>
          <g
             id="line2d_12">
            <g
               id="g43">
              <use
                 xlink:href="#m3e6bd06e8e"
                 x="251.286181"
                 y="276.48"
                 style="stroke: #000000; stroke-width: 0.8"
                 id="use43" />
            </g>
          </g>
          <g
             id="text_6">
            <!-- 2022-07 -->
            <g
               transform="translate(214.06136 310.951846) rotate(-30) scale(0.1 -0.1)"
               id="g50">
              <use
                 xlink:href="#DejaVuSans-32"
                 id="use44" />
              <use
                 xlink:href="#DejaVuSans-30"
                 x="63.623047"
                 id="use45" />
              <use
                 xlink:href="#DejaVuSans-32"
                 x="127.246094"
                 id="use46" />
              <use
                 xlink:href="#DejaVuSans-32"
                 x="190.869141"
                 id="use47" />
              <use
                 xlink:href="#DejaVuSans-2d"
                 x="254.492188"
                 id="use48" />
              <use
                 xlink:href="#DejaVuSans-30"
                 x="290.576172"
                 id="use49" />
              <use
                 xlink:href="#DejaVuSans-37"
                 x="354.199219"
                 id="use50" />
            </g>
          </g>
        </g>
        <g
           id="xtick_7">
          <g
             id="line2d_13">
            <path
               d="M 288.644803 276.48  L 288.644803 41.472  "
               clip-path="url(#pa86d6bbaa6)"
               style="fill: none; stroke: #b0b0b0; stroke-width: 0.8; stroke-linecap: square"
               id="path50" />
          </g>
          <g
             id="line2d_14">
            <g
               id="g51">
              <use
                 xlink:href="#m3e6bd06e8e"
                 x="288.644803"
                 y="276.48"
                 style="stroke: #000000; stroke-width: 0.8"
                 id="use51" />
            </g>
          </g>
          <g
             id="text_7">
            <!-- 2023-01 -->
            <g
               transform="translate(251.419982 310.951846) rotate(-30) scale(0.1 -0.1)"
               id="g58">
              <defs
                 id="defs51">
                <path
                   id="DejaVuSans-33"
                   d="M 2597 2516  Q 3050 2419 3304 2112  Q 3559 1806 3559 1356  Q 3559 666 3084 287  Q 2609 -91 1734 -91  Q 1441 -91 1130 -33  Q 819 25 488 141  L 488 750  Q 750 597 1062 519  Q 1375 441 1716 441  Q 2309 441 2620 675  Q 2931 909 2931 1356  Q 2931 1769 2642 2001  Q 2353 2234 1838 2234  L 1294 2234  L 1294 2753  L 1863 2753  Q 2328 2753 2575 2939  Q 2822 3125 2822 3475  Q 2822 3834 2567 4026  Q 2313 4219 1838 4219  Q 1578 4219 1281 4162  Q 984 4106 628 3988  L 628 4550  Q 988 4650 1302 4700  Q 1616 4750 1894 4750  Q 2613 4750 3031 4423  Q 3450 4097 3450 3541  Q 3450 3153 3228 2886  Q 3006 2619 2597 2516  z "
                   transform="scale(0.015625)" />
              </defs>
              <use
                 xlink:href="#DejaVuSans-32"
                 id="use52" />
              <use
                 xlink:href="#DejaVuSans-30"
                 x="63.623047"
                 id="use53" />
              <use
                 xlink:href="#DejaVuSans-32"
                 x="127.246094"
                 id="use54" />
              <use
                 xlink:href="#DejaVuSans-33"
                 x="190.869141"
                 id="use55" />
              <use
                 xlink:href="#DejaVuSans-2d"
                 x="254.492188"
                 id="use56" />
              <use
                 xlink:href="#DejaVuSans-30"
                 x="290.576172"
                 id="use57" />
              <use
                 xlink:href="#DejaVuSans-31"
                 x="354.199219"
                 id="use58" />
            </g>
          </g>
        </g>
        <g
           id="xtick_8">
          <g
             id="line2d_15">
            <path
               d="M 325.394317 276.48  L 325.394317 41.472  "
               clip-path="url(#pa86d6bbaa6)"
               style="fill: none; stroke: #b0b0b0; stroke-width: 0.8; stroke-linecap: square"
               id="path58" />
          </g>
          <g
             id="line2d_16">
            <g
               id="g59">
              <use
                 xlink:href="#m3e6bd06e8e"
                 x="325.394317"
                 y="276.48"
                 style="stroke: #000000; stroke-width: 0.8"
                 id="use59" />
            </g>
          </g>
          <g
             id="text_8">
            <!-- 2023-07 -->
            <g
               transform="translate(288.169496 310.951846) rotate(-30) scale(0.1 -0.1)"
               id="g66">
              <use
                 xlink:href="#DejaVuSans-32"
                 id="use60" />
              <use
                 xlink:href="#DejaVuSans-30"
                 x="63.623047"
                 id="use61" />
              <use
                 xlink:href="#DejaVuSans-32"
                 x="127.246094"
                 id="use62" />
              <use
                 xlink:href="#DejaVuSans-33"
                 x="190.869141"
                 id="use63" />
              <use
                 xlink:href="#DejaVuSans-2d"
                 x="254.492188"
                 id="use64" />
              <use
                 xlink:href="#DejaVuSans-30"
                 x="290.576172"
                 id="use65" />
              <use
                 xlink:href="#DejaVuSans-37"
                 x="354.199219"
                 id="use66" />
            </g>
          </g>
        </g>
        <g
           id="xtick_9">
          <g
             id="line2d_17">
            <path
               d="M 362.752939 276.48  L 362.752939 41.472  "
               clip-path="url(#pa86d6bbaa6)"
               style="fill: none; stroke: #b0b0b0; stroke-width: 0.8; stroke-linecap: square"
               id="path66" />
          </g>
          <g
             id="line2d_18">
            <g
               id="g67">
              <use
                 xlink:href="#m3e6bd06e8e"
                 x="362.752939"
                 y="276.48"
                 style="stroke: #000000; stroke-width: 0.8"
                 id="use67" />
            </g>
          </g>
          <g
             id="text_9">
            <!-- 2024-01 -->
            <g
               transform="translate(325.528118 310.951846) rotate(-30) scale(0.1 -0.1)"
               id="g74">
              <defs
                 id="defs67">
                <path
                   id="DejaVuSans-34"
                   d="M 2419 4116  L 825 1625  L 2419 1625  L 2419 4116  z M 2253 4666  L 3047 4666  L 3047 1625  L 3713 1625  L 3713 1100  L 3047 1100  L 3047 0  L 2419 0  L 2419 1100  L 313 1100  L 313 1709  L 2253 4666  z "
                   transform="scale(0.015625)" />
              </defs>
              <use
                 xlink:href="#DejaVuSans-32"
                 id="use68" />
              <use
                 xlink:href="#DejaVuSans-30"
                 x="63.623047"
                 id="use69" />
              <use
                 xlink:href="#DejaVuSans-32"
                 x="127.246094"
                 id="use70" />
              <use
                 xlink:href="#DejaVuSans-34"
                 x="190.869141"
                 id="use71" />
              <use
                 xlink:href="#DejaVuSans-2d"
                 x="254.492188"
                 id="use72" />
              <use
                 xlink:href="#DejaVuSans-30"
                 x="290.576172"
                 id="use73" />
              <use
                 xlink:href="#DejaVuSans-31"
                 x="354.199219"
                 id="use74" />
            </g>
          </g>
        </g>
        <g
           id="xtick_10">
          <g
             id="line2d_19">
            <path
               d="M 399.705489 276.48  L 399.705489 41.472  "
               clip-path="url(#pa86d6bbaa6)"
               style="fill: none; stroke: #b0b0b0; stroke-width: 0.8; stroke-linecap: square"
               id="path74" />
          </g>
          <g
             id="line2d_20">
            <g
               id="g75">
              <use
                 xlink:href="#m3e6bd06e8e"
                 x="399.705489"
                 y="276.48"
                 style="stroke: #000000; stroke-width: 0.8"
                 id="use75" />
            </g>
          </g>
          <g
             id="text_10">
            <!-- 2024-07 -->
            <g
               transform="translate(362.480668 310.951846) rotate(-30) scale(0.1 -0.1)"
               id="g82">
              <use
                 xlink:href="#DejaVuSans-32"
                 id="use76" />
              <use
                 xlink:href="#DejaVuSans-30"
                 x="63.623047"
                 id="use77" />
              <use
                 xlink:href="#DejaVuSans-32"
                 x="127.246094"
                 id="use78" />
              <use
                 xlink:href="#DejaVuSans-34"
                 x="190.869141"
                 id="use79" />
              <use
                 xlink:href="#DejaVuSans-2d"
                 x="254.492188"
                 id="use80" />
              <use
                 xlink:href="#DejaVuSans-30"
                 x="290.576172"
                 id="use81" />
              <use
                 xlink:href="#DejaVuSans-37"
                 x="354.199219"
                 id="use82" />
            </g>
          </g>
        </g>
      </g>
      <g
         id="matplotlib.axis_2">
        <g
           id="ytick_1">
          <g
             id="line2d_21">
            <path
               d="M 57.6 276.48  L 414.72 276.48  "
               clip-path="url(#pa86d6bbaa6)"
               style="fill: none; stroke: #b0b0b0; stroke-width: 0.8; stroke-linecap: square"
               id="path82" />
          </g>
          <g
             id="line2d_22">
            <defs
               id="defs82">
              <path
                 id="md979b87439"
                 d="M 0 0  L -3.5 0  "
                 style="stroke: #000000; stroke-width: 0.8" />
            </defs>
            <g
               id="g83">
              <use
                 xlink:href="#md979b87439"
                 x="57.6"
                 y="276.48"
                 style="stroke: #000000; stroke-width: 0.8"
                 id="use83" />
            </g>
          </g>
          <g
             id="text_11">
            <!-- 0 -->
            <g
               transform="translate(44.2375 280.279219) scale(0.1 -0.1)"
               id="g84">
              <use
                 xlink:href="#DejaVuSans-30"
                 id="use84" />
            </g>
          </g>
        </g>
        <g
           id="ytick_2">
          <g
             id="line2d_23">
            <path
               d="M 57.6 248.66274  L 414.72 248.66274  "
               clip-path="url(#pa86d6bbaa6)"
               style="fill: none; stroke: #b0b0b0; stroke-width: 0.8; stroke-linecap: square"
               id="path84" />
          </g>
          <g
             id="line2d_24">
            <g
               id="g85">
              <use
                 xlink:href="#md979b87439"
                 x="57.6"
                 y="248.66274"
                 style="stroke: #000000; stroke-width: 0.8"
                 id="use85" />
            </g>
          </g>
          <g
             id="text_12">
            <!-- 2500 -->
            <g
               transform="translate(25.15 252.461959) scale(0.1 -0.1)"
               id="g89">
              <defs
                 id="defs85">
                <path
                   id="DejaVuSans-35"
                   d="M 691 4666  L 3169 4666  L 3169 4134  L 1269 4134  L 1269 2991  Q 1406 3038 1543 3061  Q 1681 3084 1819 3084  Q 2600 3084 3056 2656  Q 3513 2228 3513 1497  Q 3513 744 3044 326  Q 2575 -91 1722 -91  Q 1428 -91 1123 -41  Q 819 9 494 109  L 494 744  Q 775 591 1075 516  Q 1375 441 1709 441  Q 2250 441 2565 725  Q 2881 1009 2881 1497  Q 2881 1984 2565 2268  Q 2250 2553 1709 2553  Q 1456 2553 1204 2497  Q 953 2441 691 2322  L 691 4666  z "
                   transform="scale(0.015625)" />
              </defs>
              <use
                 xlink:href="#DejaVuSans-32"
                 id="use86" />
              <use
                 xlink:href="#DejaVuSans-35"
                 x="63.623047"
                 id="use87" />
              <use
                 xlink:href="#DejaVuSans-30"
                 x="127.246094"
                 id="use88" />
              <use
                 xlink:href="#DejaVuSans-30"
                 x="190.869141"
                 id="use89" />
            </g>
          </g>
        </g>
        <g
           id="ytick_3">
          <g
             id="line2d_25">
            <path
               d="M 57.6 220.84548  L 414.72 220.84548  "
               clip-path="url(#pa86d6bbaa6)"
               style="fill: none; stroke: #b0b0b0; stroke-width: 0.8; stroke-linecap: square"
               id="path89" />
          </g>
          <g
             id="line2d_26">
            <g
               id="g90">
              <use
                 xlink:href="#md979b87439"
                 x="57.6"
                 y="220.84548"
                 style="stroke: #000000; stroke-width: 0.8"
                 id="use90" />
            </g>
          </g>
          <g
             id="text_13">
            <!-- 5000 -->
            <g
               transform="translate(25.15 224.644699) scale(0.1 -0.1)"
               id="g94">
              <use
                 xlink:href="#DejaVuSans-35"
                 id="use91" />
              <use
                 xlink:href="#DejaVuSans-30"
                 x="63.623047"
                 id="use92" />
              <use
                 xlink:href="#DejaVuSans-30"
                 x="127.246094"
                 id="use93" />
              <use
                 xlink:href="#DejaVuSans-30"
                 x="190.869141"
                 id="use94" />
            </g>
          </g>
        </g>
        <g
           id="ytick_4">
          <g
             id="line2d_27">
            <path
               d="M 57.6 193.02822  L 414.72 193.02822  "
               clip-path="url(#pa86d6bbaa6)"
               style="fill: none; stroke: #b0b0b0; stroke-width: 0.8; stroke-linecap: square"
               id="path94" />
          </g>
          <g
             id="line2d_28">
            <g
               id="g95">
              <use
                 xlink:href="#md979b87439"
                 x="57.6"
                 y="193.02822"
                 style="stroke: #000000; stroke-width: 0.8"
                 id="use95" />
            </g>
          </g>
          <g
             id="text_14">
            <!-- 7500 -->
            <g
               transform="translate(25.15 196.827439) scale(0.1 -0.1)"
               id="g99">
              <use
                 xlink:href="#DejaVuSans-37"
                 id="use96" />
              <use
                 xlink:href="#DejaVuSans-35"
                 x="63.623047"
                 id="use97" />
              <use
                 xlink:href="#DejaVuSans-30"
                 x="127.246094"
                 id="use98" />
              <use
                 xlink:href="#DejaVuSans-30"
                 x="190.869141"
                 id="use99" />
            </g>
          </g>
        </g>
        <g
           id="ytick_5">
          <g
             id="line2d_29">
            <path
               d="M 57.6 165.210961  L 414.72 165.210961  "
               clip-path="url(#pa86d6bbaa6)"
               style="fill: none; stroke: #b0b0b0; stroke-width: 0.8; stroke-linecap: square"
               id="path99" />
          </g>
          <g
             id="line2d_30">
            <g
               id="g100">
              <use
                 xlink:href="#md979b87439"
                 x="57.6"
                 y="165.210961"
                 style="stroke: #000000; stroke-width: 0.8"
                 id="use100" />
            </g>
          </g>
          <g
             id="text_15">
            <!-- 10000 -->
            <g
               transform="translate(18.7875 169.010179) scale(0.1 -0.1)"
               id="g105">
              <use
                 xlink:href="#DejaVuSans-31"
                 id="use101" />
              <use
                 xlink:href="#DejaVuSans-30"
                 x="63.623047"
                 id="use102" />
              <use
                 xlink:href="#DejaVuSans-30"
                 x="127.246094"
                 id="use103" />
              <use
                 xlink:href="#DejaVuSans-30"
                 x="190.869141"
                 id="use104" />
              <use
                 xlink:href="#DejaVuSans-30"
                 x="254.492188"
                 id="use105" />
            </g>
          </g>
        </g>
        <g
           id="ytick_6">
          <g
             id="line2d_31">
            <path
               d="M 57.6 137.393701  L 414.72 137.393701  "
               clip-path="url(#pa86d6bbaa6)"
               style="fill: none; stroke: #b0b0b0; stroke-width: 0.8; stroke-linecap: square"
               id="path105" />
          </g>
          <g
             id="line2d_32">
            <g
               id="g106">
              <use
                 xlink:href="#md979b87439"
                 x="57.6"
                 y="137.393701"
                 style="stroke: #000000; stroke-width: 0.8"
                 id="use106" />
            </g>
          </g>
          <g
             id="text_16">
            <!-- 12500 -->
            <g
               transform="translate(18.7875 141.19292) scale(0.1 -0.1)"
               id="g111">
              <use
                 xlink:href="#DejaVuSans-31"
                 id="use107" />
              <use
                 xlink:href="#DejaVuSans-32"
                 x="63.623047"
                 id="use108" />
              <use
                 xlink:href="#DejaVuSans-35"
                 x="127.246094"
                 id="use109" />
              <use
                 xlink:href="#DejaVuSans-30"
                 x="190.869141"
                 id="use110" />
              <use
                 xlink:href="#DejaVuSans-30"
                 x="254.492188"
                 id="use111" />
            </g>
          </g>
        </g>
        <g
           id="ytick_7">
          <g
             id="line2d_33">
            <path
               d="M 57.6 109.576441  L 414.72 109.576441  "
               clip-path="url(#pa86d6bbaa6)"
               style="fill: none; stroke: #b0b0b0; stroke-width: 0.8; stroke-linecap: square"
               id="path111" />
          </g>
          <g
             id="line2d_34">
            <g
               id="g112">
              <use
                 xlink:href="#md979b87439"
                 x="57.6"
                 y="109.576441"
                 style="stroke: #000000; stroke-width: 0.8"
                 id="use112" />
            </g>
          </g>
          <g
             id="text_17">
            <!-- 15000 -->
            <g
               transform="translate(18.7875 113.37566) scale(0.1 -0.1)"
               id="g117">
              <use
                 xlink:href="#DejaVuSans-31"
                 id="use113" />
              <use
                 xlink:href="#DejaVuSans-35"
                 x="63.623047"
                 id="use114" />
              <use
                 xlink:href="#DejaVuSans-30"
                 x="127.246094"
                 id="use115" />
              <use
                 xlink:href="#DejaVuSans-30"
                 x="190.869141"
                 id="use116" />
              <use
                 xlink:href="#DejaVuSans-30"
                 x="254.492188"
                 id="use117" />
            </g>
          </g>
        </g>
        <g
           id="ytick_8">
          <g
             id="line2d_35">
            <path
               d="M 57.6 81.759181  L 414.72 81.759181  "
               clip-path="url(#pa86d6bbaa6)"
               style="fill: none; stroke: #b0b0b0; stroke-width: 0.8; stroke-linecap: square"
               id="path117" />
          </g>
          <g
             id="line2d_36">
            <g
               id="g118">
              <use
                 xlink:href="#md979b87439"
                 x="57.6"
                 y="81.759181"
                 style="stroke: #000000; stroke-width: 0.8"
                 id="use118" />
            </g>
          </g>
          <g
             id="text_18">
            <!-- 17500 -->
            <g
               transform="translate(18.7875 85.5584) scale(0.1 -0.1)"
               id="g123">
              <use
                 xlink:href="#DejaVuSans-31"
                 id="use119" />
              <use
                 xlink:href="#DejaVuSans-37"
                 x="63.623047"
                 id="use120" />
              <use
                 xlink:href="#DejaVuSans-35"
                 x="127.246094"
                 id="use121" />
              <use
                 xlink:href="#DejaVuSans-30"
                 x="190.869141"
                 id="use122" />
              <use
                 xlink:href="#DejaVuSans-30"
                 x="254.492188"
                 id="use123" />
            </g>
          </g>
        </g>
        <g
           id="ytick_9">
          <g
             id="line2d_37">
            <path
               d="M 57.6 53.941921  L 414.72 53.941921  "
               clip-path="url(#pa86d6bbaa6)"
               style="fill: none; stroke: #b0b0b0; stroke-width: 0.8; stroke-linecap: square"
               id="path123" />
          </g>
          <g
             id="line2d_38">
            <g
               id="g124">
              <use
                 xlink:href="#md979b87439"
                 x="57.6"
                 y="53.941921"
                 style="stroke: #000000; stroke-width: 0.8"
                 id="use124" />
            </g>
          </g>
          <g
             id="text_19">
            <!-- 20000 -->
            <g
               transform="translate(18.7875 57.74114) scale(0.1 -0.1)"
               id="g129">
              <use
                 xlink:href="#DejaVuSans-32"
                 id="use125" />
              <use
                 xlink:href="#DejaVuSans-30"
                 x="63.623047"
                 id="use126" />
              <use
                 xlink:href="#DejaVuSans-30"
                 x="127.246094"
                 id="use127" />
              <use
                 xlink:href="#DejaVuSans-30"
                 x="190.869141"
                 id="use128" />
              <use
                 xlink:href="#DejaVuSans-30"
                 x="254.492188"
                 id="use129" />
            </g>
          </g>
        </g>
      </g>
      <g
         id="line2d_39">
        <path
           d="m 73.832727,225.57441 1.624288,0.0556 0.406072,0.0668 h 1.218216 l 0.203036,-0.75663 1.01518,0.0223 0.406072,4.53978 0.203036,0.80114 0.203036,1.6134 0.609108,1.25734 0.203036,1.04593 0.812144,0.80114 0.406072,2.02509 0.203036,0.30043 0.203036,0.67874 h 0.203036 l 0.203036,0.41169 0.406072,0.0111 0.203036,3.46047 0.406072,1.66903 0.203036,0.36719 0.406072,-0.0111 0.812144,0.37831 0.203036,-4.98485 0.203036,0.54522 0.203036,0.0111 0.609108,0.38944 1.624288,-0.0668 1.015179,-0.0111 0.203036,-0.83452 h 0.203036 l 0.406072,0.15577 0.203036,0.0223 0.203036,-5.26303 0.406072,1.22396 0.203036,-0.0222 0.406072,0.12239 h 0.203036 l 0.203036,0.64536 0.406072,0.15578 0.812144,0.0111 0.203036,0.11127 0.203036,-0.21141 3.654648,0.10014 1.01518,0.0779 1.421252,-0.0223 0.203036,0.37832 3.654646,0.0223 0.20304,-0.27817 2.63946,0.0223 0.60911,-0.0668 3.85769,0.0223 h 0.81214 l 4.46679,0.10014 0.20304,-9.55801 3.04554,0.0668 0.40607,0.14465 0.81214,4.86245 7.91841,0.34494 0.20303,-3.0599 4.26376,0.1224 3.45161,0.089 0.20304,0.0223 0.20303,0.67874 0.20304,1.39086 h 0.20304 l 0.20303,1.13494 1.82733,0.0223 0.20303,0.20028 h 0.20304 l 0.40607,0.15578 3.24857,0.10014 2.2334,0.0111 2.03036,0.0111 0.20304,-1.06818 3.24857,0.0668 2.03036,-0.0111 0.40607,0.12239 0.81215,0.0111 0.20303,0.38944 1.42126,-0.0223 0.20303,-19.53885 0.60911,0.10015 h 1.21822 l 5.48197,0.23366 0.20303,0.25592 2.63947,0.0445 0.20304,0.30042 0.81214,0.0445 9.94876,0.10014 1.42126,0.0445 2.63947,0.1669 0.20303,-3.02651 2.2334,0.0222 0.20303,0.26705 0.60911,0.0445 6.90322,0.10015 3.45162,0.0779 4.26375,0.0556 0.20304,0.0668 0.20303,4.72893 5.27894,0.089 1.01518,0.0556 3.04554,0.089 1.42125,0.0556 0.20304,0.51184 4.66982,0.10014 1.42126,0.0445 0.6091,0.10014 1.82733,-0.0111 1.21821,0.10014 0.40608,0.089 3.04554,0.0445 0.20303,0.17803 1.62429,0.0668 h 0.60911 l 0.40607,1.9027 0.60911,0.0111 h 0.60911 l 0.40607,-0.15578 1.62429,0.0223 0.40607,0.14465 h 0.60911 l 0.20303,0.6231 3.04554,0.10015 5.48197,0.18915 3.45162,0.0556 0.40607,0.11127 0.40607,0.0334 1.01518,-0.0111 2.23339,0.0222 0.20304,-0.30042 3.65465,0.089 3.65465,0.0223 0.20303,0.25592 h 0.40607 l 0.20304,0.15577 8.93358,0.089 1.42126,0.0556 6.29411,0.089 0.20304,0.38944 0.20303,0.82339 2.2334,0.0334 0.81214,-0.0445 1.21822,0.0334 0.20304,-59.30639 0.20303,0.54521 0.40607,0.15578 5.27894,0.23367 0.20303,-24.89089 4.26376,0.10014 1.62429,0.11127 0.20303,25.46949 4.66983,0.14465 1.42125,0.0779 0.20304,-72.925724 1.01518,0.05564 1.42125,0.04451 0.81215,0.04451 0.40607,0.100142 2.23339,0.255919 0.20304,-1.568893 6.09108,0.389441 0.20304,-1.880446 0.81214,0.100142 0.40607,0.17803 0.20304,0.478457 0.20303,0.03338 0.60911,0.356061 1.01518,0.400568 2.03036,0.222538 0.60911,0.05563 0.20304,-4.283858 2.23339,0.222538 0.20304,0.489584 0.40607,0.111269 0.60911,0.01113 0.6091,0.32268 0.20304,0.100142 0.20304,0.333807 0.40607,0.07789 0.20303,0.02225 0.20304,-0.100142 0.20304,0.244792 0.6091,0.02225 0.20304,-4.172589 1.01518,0.07789 1.82732,0.200284 2.43644,0.03338 0.40607,0.100142 0.20303,0.03338 0.20304,-15.544285 4.46679,0.32268 0.20304,0.14465 0.20303,2.525807 0.81215,0.08902 0.20303,0.289299 h 0.20304 l 0.20304,39.78981 1.62428,0.10014 1.42126,0.11127 0.20303,2.15862 2.2334,0.37831 0.40607,-0.0111 0.20304,1.26846 1.42125,0.0445 3.85768,0.0556 0.20304,0.2893 0.60911,0.0222 0.20303,-34.68256 2.63947,0.233665 0.20304,0.400568 0.81214,0.08902 0.40607,0.01113 0.20304,0.2893 0.20303,-0.456203 0.20304,0.244792 h 0.81214 l 0.20304,0.03338 0.20304,-0.08901 0.20303,46.465951 1.62429,0.0223 2.8425,0.0445 1.42125,0.0111 0.20304,1.63565 6.09108,0.4117 0.20304,-46.054257 2.43643,0.100142 0.60911,0.122396 0.20303,0.233665 2.2334,0.06676 0.20303,0.100142 0.40608,-0.02225 0.20303,10.715209 0.20304,0.244792 1.01518,0.03338 0.20303,0.166904 1.42126,0.05563 0.6091,0.01113 0.40608,0.155777 0.81214,0.100142 1.21822,0.133523 0.20303,-46.221159 1.42125,0.06676 0.81215,0.14465 2.8425,0.08901 0.81215,0.189158 0.20303,191.238101 0.20304,0.26704 0.40607,2.06961 0.20304,0.34493 0.40607,2.42567 0.20303,0.0111 0.20304,0.94579 h 0.20304 l 0.20303,1.21283 0.20304,0.52297 h 0.60911 l 0.40607,1.15719 9.13662,0.0223 0.20303,-156.755825 0.40607,0.14465 3.24858,0.255919 1.42125,0.03338 v 0"
           clip-path="url(#pa86d6bbaa6)"
           style="fill:none;stroke:#ff0000;stroke-width:1.5;stroke-linecap:square"
           id="path129"
           sodipodi:nodetypes="ccccccccccccccccccccccccccccccccccccccccccccccccccccccccccccccccccccccccccccccccccccccccccccccccccccccccccccccccccccccccccccccccccccccccccccccccccccccccccccccccccccccccccccccccccccccccccccccccccccccccccccccccccccccccccccccccccccccccccccccccccccccccccccccccccccccccc" />
      </g>
      <g
         id="patch_3">
        <path
           d="M 57.6 276.48  L 57.6 41.472  "
           style="fill: none; stroke: #000000; stroke-width: 0.8; stroke-linejoin: miter; stroke-linecap: square"
           id="path130" />
      </g>
      <g
         id="patch_4">
        <path
           d="M 414.72 276.48  L 414.72 41.472  "
           style="fill: none; stroke: #000000; stroke-width: 0.8; stroke-linejoin: miter; stroke-linecap: square"
           id="path131" />
      </g>
      <g
         id="patch_5">
        <path
           d="M 57.6 276.48  L 414.72 276.48  "
           style="fill: none; stroke: #000000; stroke-width: 0.8; stroke-linejoin: miter; stroke-linecap: square"
           id="path132" />
      </g>
      <g
         id="patch_6">
        <path
           d="M 57.6 41.472  L 414.72 41.472  "
           style="fill: none; stroke: #000000; stroke-width: 0.8; stroke-linejoin: miter; stroke-linecap: square"
           id="path133" />
      </g>
      <g
         id="text_20">
        <!--  charging station -->
        <g
           transform="translate(185.47125 35.472) scale(0.12 -0.12)"
           id="g149">
          <defs
             id="defs133">
            <path
               id="DejaVuSans-20"
               transform="scale(0.015625)" />
            <path
               id="DejaVuSans-63"
               d="M 3122 3366  L 3122 2828  Q 2878 2963 2633 3030  Q 2388 3097 2138 3097  Q 1578 3097 1268 2742  Q 959 2388 959 1747  Q 959 1106 1268 751  Q 1578 397 2138 397  Q 2388 397 2633 464  Q 2878 531 3122 666  L 3122 134  Q 2881 22 2623 -34  Q 2366 -91 2075 -91  Q 1284 -91 818 406  Q 353 903 353 1747  Q 353 2603 823 3093  Q 1294 3584 2113 3584  Q 2378 3584 2631 3529  Q 2884 3475 3122 3366  z "
               transform="scale(0.015625)" />
            <path
               id="DejaVuSans-68"
               d="M 3513 2113  L 3513 0  L 2938 0  L 2938 2094  Q 2938 2591 2744 2837  Q 2550 3084 2163 3084  Q 1697 3084 1428 2787  Q 1159 2491 1159 1978  L 1159 0  L 581 0  L 581 4863  L 1159 4863  L 1159 2956  Q 1366 3272 1645 3428  Q 1925 3584 2291 3584  Q 2894 3584 3203 3211  Q 3513 2838 3513 2113  z "
               transform="scale(0.015625)" />
            <path
               id="DejaVuSans-61"
               d="M 2194 1759  Q 1497 1759 1228 1600  Q 959 1441 959 1056  Q 959 750 1161 570  Q 1363 391 1709 391  Q 2188 391 2477 730  Q 2766 1069 2766 1631  L 2766 1759  L 2194 1759  z M 3341 1997  L 3341 0  L 2766 0  L 2766 531  Q 2569 213 2275 61  Q 1981 -91 1556 -91  Q 1019 -91 701 211  Q 384 513 384 1019  Q 384 1609 779 1909  Q 1175 2209 1959 2209  L 2766 2209  L 2766 2266  Q 2766 2663 2505 2880  Q 2244 3097 1772 3097  Q 1472 3097 1187 3025  Q 903 2953 641 2809  L 641 3341  Q 956 3463 1253 3523  Q 1550 3584 1831 3584  Q 2591 3584 2966 3190  Q 3341 2797 3341 1997  z "
               transform="scale(0.015625)" />
            <path
               id="DejaVuSans-72"
               d="M 2631 2963  Q 2534 3019 2420 3045  Q 2306 3072 2169 3072  Q 1681 3072 1420 2755  Q 1159 2438 1159 1844  L 1159 0  L 581 0  L 581 3500  L 1159 3500  L 1159 2956  Q 1341 3275 1631 3429  Q 1922 3584 2338 3584  Q 2397 3584 2469 3576  Q 2541 3569 2628 3553  L 2631 2963  z "
               transform="scale(0.015625)" />
            <path
               id="DejaVuSans-67"
               d="M 2906 1791  Q 2906 2416 2648 2759  Q 2391 3103 1925 3103  Q 1463 3103 1205 2759  Q 947 2416 947 1791  Q 947 1169 1205 825  Q 1463 481 1925 481  Q 2391 481 2648 825  Q 2906 1169 2906 1791  z M 3481 434  Q 3481 -459 3084 -895  Q 2688 -1331 1869 -1331  Q 1566 -1331 1297 -1286  Q 1028 -1241 775 -1147  L 775 -588  Q 1028 -725 1275 -790  Q 1522 -856 1778 -856  Q 2344 -856 2625 -561  Q 2906 -266 2906 331  L 2906 616  Q 2728 306 2450 153  Q 2172 0 1784 0  Q 1141 0 747 490  Q 353 981 353 1791  Q 353 2603 747 3093  Q 1141 3584 1784 3584  Q 2172 3584 2450 3431  Q 2728 3278 2906 2969  L 2906 3500  L 3481 3500  L 3481 434  z "
               transform="scale(0.015625)" />
            <path
               id="DejaVuSans-69"
               d="M 603 3500  L 1178 3500  L 1178 0  L 603 0  L 603 3500  z M 603 4863  L 1178 4863  L 1178 4134  L 603 4134  L 603 4863  z "
               transform="scale(0.015625)" />
            <path
               id="DejaVuSans-6e"
               d="M 3513 2113  L 3513 0  L 2938 0  L 2938 2094  Q 2938 2591 2744 2837  Q 2550 3084 2163 3084  Q 1697 3084 1428 2787  Q 1159 2491 1159 1978  L 1159 0  L 581 0  L 581 3500  L 1159 3500  L 1159 2956  Q 1366 3272 1645 3428  Q 1925 3584 2291 3584  Q 2894 3584 3203 3211  Q 3513 2838 3513 2113  z "
               transform="scale(0.015625)" />
            <path
               id="DejaVuSans-73"
               d="M 2834 3397  L 2834 2853  Q 2591 2978 2328 3040  Q 2066 3103 1784 3103  Q 1356 3103 1142 2972  Q 928 2841 928 2578  Q 928 2378 1081 2264  Q 1234 2150 1697 2047  L 1894 2003  Q 2506 1872 2764 1633  Q 3022 1394 3022 966  Q 3022 478 2636 193  Q 2250 -91 1575 -91  Q 1294 -91 989 -36  Q 684 19 347 128  L 347 722  Q 666 556 975 473  Q 1284 391 1588 391  Q 1994 391 2212 530  Q 2431 669 2431 922  Q 2431 1156 2273 1281  Q 2116 1406 1581 1522  L 1381 1569  Q 847 1681 609 1914  Q 372 2147 372 2553  Q 372 3047 722 3315  Q 1072 3584 1716 3584  Q 2034 3584 2315 3537  Q 2597 3491 2834 3397  z "
               transform="scale(0.015625)" />
            <path
               id="DejaVuSans-74"
               d="M 1172 4494  L 1172 3500  L 2356 3500  L 2356 3053  L 1172 3053  L 1172 1153  Q 1172 725 1289 603  Q 1406 481 1766 481  L 2356 481  L 2356 0  L 1766 0  Q 1100 0 847 248  Q 594 497 594 1153  L 594 3053  L 172 3053  L 172 3500  L 594 3500  L 594 4494  L 1172 4494  z "
               transform="scale(0.015625)" />
            <path
               id="DejaVuSans-6f"
               d="M 1959 3097  Q 1497 3097 1228 2736  Q 959 2375 959 1747  Q 959 1119 1226 758  Q 1494 397 1959 397  Q 2419 397 2687 759  Q 2956 1122 2956 1747  Q 2956 2369 2687 2733  Q 2419 3097 1959 3097  z M 1959 3584  Q 2709 3584 3137 3096  Q 3566 2609 3566 1747  Q 3566 888 3137 398  Q 2709 -91 1959 -91  Q 1206 -91 779 398  Q 353 888 353 1747  Q 353 2609 779 3096  Q 1206 3584 1959 3584  z "
               transform="scale(0.015625)" />
          </defs>
          <use
             xlink:href="#DejaVuSans-20"
             id="use133" />
          <use
             xlink:href="#DejaVuSans-63"
             x="31.787109"
             id="use134" />
          <use
             xlink:href="#DejaVuSans-68"
             x="86.767578"
             id="use135" />
          <use
             xlink:href="#DejaVuSans-61"
             x="150.146484"
             id="use136" />
          <use
             xlink:href="#DejaVuSans-72"
             x="211.425781"
             id="use137" />
          <use
             xlink:href="#DejaVuSans-67"
             x="250.789062"
             id="use138" />
          <use
             xlink:href="#DejaVuSans-69"
             x="314.265625"
             id="use139" />
          <use
             xlink:href="#DejaVuSans-6e"
             x="342.048828"
             id="use140" />
          <use
             xlink:href="#DejaVuSans-67"
             x="405.427734"
             id="use141" />
          <use
             xlink:href="#DejaVuSans-20"
             x="468.904297"
             id="use142" />
          <use
             xlink:href="#DejaVuSans-73"
             x="500.691406"
             id="use143" />
          <use
             xlink:href="#DejaVuSans-74"
             x="552.791016"
             id="use144" />
          <use
             xlink:href="#DejaVuSans-61"
             x="592"
             id="use145" />
          <use
             xlink:href="#DejaVuSans-74"
             x="653.279297"
             id="use146" />
          <use
             xlink:href="#DejaVuSans-69"
             x="692.488281"
             id="use147" />
          <use
             xlink:href="#DejaVuSans-6f"
             x="720.271484"
             id="use148" />
          <use
             xlink:href="#DejaVuSans-6e"
             x="781.453125"
             id="use149" />
        </g>
      </g>
    </g>
  </g>
  <defs
     id="defs149">
    <clipPath
       id="pa86d6bbaa6">
      <rect
         x="57.6"
         y="41.472"
         width="357.12"
         height="235.008"
         id="rect149" />
    </clipPath>
  </defs>
</svg>
