<?xml version="1.0" encoding="UTF-8" standalone="no"?>
<svg
   width="460.8pt"
   height="345.6pt"
   viewBox="0 0 460.8 345.6"
   version="1.1"
   id="svg125"
   sodipodi:docname="monuments.svg"
   inkscape:version="1.3.2 (091e20ef0f, 2023-11-25, custom)"
   xmlns:inkscape="http://www.inkscape.org/namespaces/inkscape"
   xmlns:sodipodi="http://sodipodi.sourceforge.net/DTD/sodipodi-0.dtd"
   xmlns:xlink="http://www.w3.org/1999/xlink"
   xmlns="http://www.w3.org/2000/svg"
   xmlns:svg="http://www.w3.org/2000/svg"
   xmlns:rdf="http://www.w3.org/1999/02/22-rdf-syntax-ns#"
   xmlns:cc="http://creativecommons.org/ns#"
   xmlns:dc="http://purl.org/dc/elements/1.1/">
  <sodipodi:namedview
     id="namedview125"
     pagecolor="#ffffff"
     bordercolor="#cccccc"
     borderopacity="1"
     inkscape:showpageshadow="0"
     inkscape:pageopacity="1"
     inkscape:pagecheckerboard="0"
     inkscape:deskcolor="#d1d1d1"
     inkscape:document-units="pt"
     inkscape:zoom="1.5348308"
     inkscape:cx="303.9423"
     inkscape:cy="185.36246"
     inkscape:window-width="1882"
     inkscape:window-height="1061"
     inkscape:window-x="0"
     inkscape:window-y="0"
     inkscape:window-maximized="1"
     inkscape:current-layer="text_12" />
  <metadata
     id="metadata1">
    <rdf:RDF>
      <cc:Work>
        <dc:type
           rdf:resource="http://purl.org/dc/dcmitype/StillImage" />
        <dc:date>2024-06-25T08:13:08.957214</dc:date>
        <dc:format>image/svg+xml</dc:format>
        <dc:creator>
          <cc:Agent>
            <dc:title>Matplotlib v3.8.4, https://matplotlib.org/</dc:title>
          </cc:Agent>
        </dc:creator>
      </cc:Work>
    </rdf:RDF>
  </metadata>
  <defs
     id="defs1">
    <style
       type="text/css"
       id="style1">*{stroke-linejoin: round; stroke-linecap: butt}</style>
  </defs>
  <g
     id="figure_1">
    <g
       id="patch_1">
      <path
         d="M 0 345.6  L 460.8 345.6  L 460.8 0  L 0 0  z "
         style="fill: #ffffff"
         id="path1" />
    </g>
    <g
       id="axes_1">
      <g
         id="patch_2">
        <path
           d="M 57.6 276.48  L 414.72 276.48  L 414.72 41.472  L 57.6 41.472  z "
           style="fill: #ffffff"
           id="path2" />
      </g>
      <g
         id="matplotlib.axis_1">
        <g
           id="xtick_1">
          <g
             id="line2d_1">
            <path
               d="M 58.930551 276.48  L 58.930551 41.472  "
               clip-path="url(#p75d660fcb0)"
               style="fill: none; stroke: #b0b0b0; stroke-width: 0.8; stroke-linecap: square"
               id="path3" />
          </g>
          <g
             id="line2d_2">
            <defs
               id="defs3">
              <path
                 id="m91aad208aa"
                 d="M 0 0  L 0 3.5  "
                 style="stroke: #000000; stroke-width: 0.8" />
            </defs>
            <g
               id="g3">
              <use
                 xlink:href="#m91aad208aa"
                 x="58.930551"
                 y="276.48"
                 style="stroke: #000000; stroke-width: 0.8"
                 id="use3" />
            </g>
          </g>
          <g
             id="text_1">
            <!-- 2014 -->
            <g
               transform="translate(35.850361 302.78544) rotate(-30) scale(0.1 -0.1)"
               id="g7">
              <defs
                 id="defs4">
                <path
                   id="DejaVuSans-32"
                   d="M 1228 531  L 3431 531  L 3431 0  L 469 0  L 469 531  Q 828 903 1448 1529  Q 2069 2156 2228 2338  Q 2531 2678 2651 2914  Q 2772 3150 2772 3378  Q 2772 3750 2511 3984  Q 2250 4219 1831 4219  Q 1534 4219 1204 4116  Q 875 4013 500 3803  L 500 4441  Q 881 4594 1212 4672  Q 1544 4750 1819 4750  Q 2544 4750 2975 4387  Q 3406 4025 3406 3419  Q 3406 3131 3298 2873  Q 3191 2616 2906 2266  Q 2828 2175 2409 1742  Q 1991 1309 1228 531  z "
                   transform="scale(0.015625)" />
                <path
                   id="DejaVuSans-30"
                   d="M 2034 4250  Q 1547 4250 1301 3770  Q 1056 3291 1056 2328  Q 1056 1369 1301 889  Q 1547 409 2034 409  Q 2525 409 2770 889  Q 3016 1369 3016 2328  Q 3016 3291 2770 3770  Q 2525 4250 2034 4250  z M 2034 4750  Q 2819 4750 3233 4129  Q 3647 3509 3647 2328  Q 3647 1150 3233 529  Q 2819 -91 2034 -91  Q 1250 -91 836 529  Q 422 1150 422 2328  Q 422 3509 836 4129  Q 1250 4750 2034 4750  z "
                   transform="scale(0.015625)" />
                <path
                   id="DejaVuSans-31"
                   d="M 794 531  L 1825 531  L 1825 4091  L 703 3866  L 703 4441  L 1819 4666  L 2450 4666  L 2450 531  L 3481 531  L 3481 0  L 794 0  L 794 531  z "
                   transform="scale(0.015625)" />
                <path
                   id="DejaVuSans-34"
                   d="M 2419 4116  L 825 1625  L 2419 1625  L 2419 4116  z M 2253 4666  L 3047 4666  L 3047 1625  L 3713 1625  L 3713 1100  L 3047 1100  L 3047 0  L 2419 0  L 2419 1100  L 313 1100  L 313 1709  L 2253 4666  z "
                   transform="scale(0.015625)" />
              </defs>
              <use
                 xlink:href="#DejaVuSans-32"
                 id="use4" />
              <use
                 xlink:href="#DejaVuSans-30"
                 x="63.623047"
                 id="use5" />
              <use
                 xlink:href="#DejaVuSans-31"
                 x="127.246094"
                 id="use6" />
              <use
                 xlink:href="#DejaVuSans-34"
                 x="190.869141"
                 id="use7" />
            </g>
          </g>
        </g>
        <g
           id="xtick_2">
          <g
             id="line2d_3">
            <path
               d="M 123.684054 276.48  L 123.684054 41.472  "
               clip-path="url(#p75d660fcb0)"
               style="fill: none; stroke: #b0b0b0; stroke-width: 0.8; stroke-linecap: square"
               id="path7" />
          </g>
          <g
             id="line2d_4">
            <g
               id="g8">
              <use
                 xlink:href="#m91aad208aa"
                 x="123.684054"
                 y="276.48"
                 style="stroke: #000000; stroke-width: 0.8"
                 id="use8" />
            </g>
          </g>
          <g
             id="text_2">
            <!-- 2016 -->
            <g
               transform="translate(100.603863 302.78544) rotate(-30) scale(0.1 -0.1)"
               id="g12">
              <defs
                 id="defs8">
                <path
                   id="DejaVuSans-36"
                   d="M 2113 2584  Q 1688 2584 1439 2293  Q 1191 2003 1191 1497  Q 1191 994 1439 701  Q 1688 409 2113 409  Q 2538 409 2786 701  Q 3034 994 3034 1497  Q 3034 2003 2786 2293  Q 2538 2584 2113 2584  z M 3366 4563  L 3366 3988  Q 3128 4100 2886 4159  Q 2644 4219 2406 4219  Q 1781 4219 1451 3797  Q 1122 3375 1075 2522  Q 1259 2794 1537 2939  Q 1816 3084 2150 3084  Q 2853 3084 3261 2657  Q 3669 2231 3669 1497  Q 3669 778 3244 343  Q 2819 -91 2113 -91  Q 1303 -91 875 529  Q 447 1150 447 2328  Q 447 3434 972 4092  Q 1497 4750 2381 4750  Q 2619 4750 2861 4703  Q 3103 4656 3366 4563  z "
                   transform="scale(0.015625)" />
              </defs>
              <use
                 xlink:href="#DejaVuSans-32"
                 id="use9" />
              <use
                 xlink:href="#DejaVuSans-30"
                 x="63.623047"
                 id="use10" />
              <use
                 xlink:href="#DejaVuSans-31"
                 x="127.246094"
                 id="use11" />
              <use
                 xlink:href="#DejaVuSans-36"
                 x="190.869141"
                 id="use12" />
            </g>
          </g>
        </g>
        <g
           id="xtick_3">
          <g
             id="line2d_5">
            <path
               d="M 188.526259 276.48  L 188.526259 41.472  "
               clip-path="url(#p75d660fcb0)"
               style="fill: none; stroke: #b0b0b0; stroke-width: 0.8; stroke-linecap: square"
               id="path12" />
          </g>
          <g
             id="line2d_6">
            <g
               id="g13">
              <use
                 xlink:href="#m91aad208aa"
                 x="188.526259"
                 y="276.48"
                 style="stroke: #000000; stroke-width: 0.8"
                 id="use13" />
            </g>
          </g>
          <g
             id="text_3">
            <!-- 2018 -->
            <g
               transform="translate(165.446069 302.78544) rotate(-30) scale(0.1 -0.1)"
               id="g17">
              <defs
                 id="defs13">
                <path
                   id="DejaVuSans-38"
                   d="M 2034 2216  Q 1584 2216 1326 1975  Q 1069 1734 1069 1313  Q 1069 891 1326 650  Q 1584 409 2034 409  Q 2484 409 2743 651  Q 3003 894 3003 1313  Q 3003 1734 2745 1975  Q 2488 2216 2034 2216  z M 1403 2484  Q 997 2584 770 2862  Q 544 3141 544 3541  Q 544 4100 942 4425  Q 1341 4750 2034 4750  Q 2731 4750 3128 4425  Q 3525 4100 3525 3541  Q 3525 3141 3298 2862  Q 3072 2584 2669 2484  Q 3125 2378 3379 2068  Q 3634 1759 3634 1313  Q 3634 634 3220 271  Q 2806 -91 2034 -91  Q 1263 -91 848 271  Q 434 634 434 1313  Q 434 1759 690 2068  Q 947 2378 1403 2484  z M 1172 3481  Q 1172 3119 1398 2916  Q 1625 2713 2034 2713  Q 2441 2713 2670 2916  Q 2900 3119 2900 3481  Q 2900 3844 2670 4047  Q 2441 4250 2034 4250  Q 1625 4250 1398 4047  Q 1172 3844 1172 3481  z "
                   transform="scale(0.015625)" />
              </defs>
              <use
                 xlink:href="#DejaVuSans-32"
                 id="use14" />
              <use
                 xlink:href="#DejaVuSans-30"
                 x="63.623047"
                 id="use15" />
              <use
                 xlink:href="#DejaVuSans-31"
                 x="127.246094"
                 id="use16" />
              <use
                 xlink:href="#DejaVuSans-38"
                 x="190.869141"
                 id="use17" />
            </g>
          </g>
        </g>
        <g
           id="xtick_4">
          <g
             id="line2d_7">
            <path
               d="M 253.279762 276.48  L 253.279762 41.472  "
               clip-path="url(#p75d660fcb0)"
               style="fill: none; stroke: #b0b0b0; stroke-width: 0.8; stroke-linecap: square"
               id="path17" />
          </g>
          <g
             id="line2d_8">
            <g
               id="g18">
              <use
                 xlink:href="#m91aad208aa"
                 x="253.279762"
                 y="276.48"
                 style="stroke: #000000; stroke-width: 0.8"
                 id="use18" />
            </g>
          </g>
          <g
             id="text_4">
            <!-- 2020 -->
            <g
               transform="translate(230.199571 302.78544) rotate(-30) scale(0.1 -0.1)"
               id="g22">
              <use
                 xlink:href="#DejaVuSans-32"
                 id="use19" />
              <use
                 xlink:href="#DejaVuSans-30"
                 x="63.623047"
                 id="use20" />
              <use
                 xlink:href="#DejaVuSans-32"
                 x="127.246094"
                 id="use21" />
              <use
                 xlink:href="#DejaVuSans-30"
                 x="190.869141"
                 id="use22" />
            </g>
          </g>
        </g>
        <g
           id="xtick_5">
          <g
             id="line2d_9">
            <path
               d="M 318.121967 276.48  L 318.121967 41.472  "
               clip-path="url(#p75d660fcb0)"
               style="fill: none; stroke: #b0b0b0; stroke-width: 0.8; stroke-linecap: square"
               id="path22" />
          </g>
          <g
             id="line2d_10">
            <g
               id="g23">
              <use
                 xlink:href="#m91aad208aa"
                 x="318.121967"
                 y="276.48"
                 style="stroke: #000000; stroke-width: 0.8"
                 id="use23" />
            </g>
          </g>
          <g
             id="text_5">
            <!-- 2022 -->
            <g
               transform="translate(295.041777 302.78544) rotate(-30) scale(0.1 -0.1)"
               id="g27">
              <use
                 xlink:href="#DejaVuSans-32"
                 id="use24" />
              <use
                 xlink:href="#DejaVuSans-30"
                 x="63.623047"
                 id="use25" />
              <use
                 xlink:href="#DejaVuSans-32"
                 x="127.246094"
                 id="use26" />
              <use
                 xlink:href="#DejaVuSans-32"
                 x="190.869141"
                 id="use27" />
            </g>
          </g>
        </g>
        <g
           id="xtick_6">
          <g
             id="line2d_11">
            <path
               d="M 382.875469 276.48  L 382.875469 41.472  "
               clip-path="url(#p75d660fcb0)"
               style="fill: none; stroke: #b0b0b0; stroke-width: 0.8; stroke-linecap: square"
               id="path27" />
          </g>
          <g
             id="line2d_12">
            <g
               id="g28">
              <use
                 xlink:href="#m91aad208aa"
                 x="382.875469"
                 y="276.48"
                 style="stroke: #000000; stroke-width: 0.8"
                 id="use28" />
            </g>
          </g>
          <g
             id="text_6">
            <!-- 2024 -->
            <g
               transform="translate(359.795279 302.78544) rotate(-30) scale(0.1 -0.1)"
               id="g32">
              <use
                 xlink:href="#DejaVuSans-32"
                 id="use29" />
              <use
                 xlink:href="#DejaVuSans-30"
                 x="63.623047"
                 id="use30" />
              <use
                 xlink:href="#DejaVuSans-32"
                 x="127.246094"
                 id="use31" />
              <use
                 xlink:href="#DejaVuSans-34"
                 x="190.869141"
                 id="use32" />
            </g>
          </g>
        </g>
      </g>
      <g
         id="matplotlib.axis_2">
        <g
           id="ytick_1">
          <g
             id="line2d_13">
            <path
               d="M 57.6 276.48  L 414.72 276.48  "
               clip-path="url(#p75d660fcb0)"
               style="fill: none; stroke: #b0b0b0; stroke-width: 0.8; stroke-linecap: square"
               id="path32" />
          </g>
          <g
             id="line2d_14">
            <defs
               id="defs32">
              <path
                 id="mbe1ff7e337"
                 d="M 0 0  L -3.5 0  "
                 style="stroke: #000000; stroke-width: 0.8" />
            </defs>
            <g
               id="g33">
              <use
                 xlink:href="#mbe1ff7e337"
                 x="57.6"
                 y="276.48"
                 style="stroke: #000000; stroke-width: 0.8"
                 id="use33" />
            </g>
          </g>
          <g
             id="text_7">
            <!-- 0 -->
            <g
               transform="translate(44.2375 280.279219) scale(0.1 -0.1)"
               id="g34">
              <use
                 xlink:href="#DejaVuSans-30"
                 id="use34" />
            </g>
          </g>
        </g>
        <g
           id="ytick_2">
          <g
             id="line2d_15">
            <path
               d="M 57.6 225.938634  L 414.72 225.938634  "
               clip-path="url(#p75d660fcb0)"
               style="fill: none; stroke: #b0b0b0; stroke-width: 0.8; stroke-linecap: square"
               id="path34" />
          </g>
          <g
             id="line2d_16">
            <g
               id="g35">
              <use
                 xlink:href="#mbe1ff7e337"
                 x="57.6"
                 y="225.938634"
                 style="stroke: #000000; stroke-width: 0.8"
                 id="use35" />
            </g>
          </g>
          <g
             id="text_8">
            <!-- 10000 -->
            <g
               transform="translate(18.7875 229.737853) scale(0.1 -0.1)"
               id="g40">
              <use
                 xlink:href="#DejaVuSans-31"
                 id="use36" />
              <use
                 xlink:href="#DejaVuSans-30"
                 x="63.623047"
                 id="use37" />
              <use
                 xlink:href="#DejaVuSans-30"
                 x="127.246094"
                 id="use38" />
              <use
                 xlink:href="#DejaVuSans-30"
                 x="190.869141"
                 id="use39" />
              <use
                 xlink:href="#DejaVuSans-30"
                 x="254.492188"
                 id="use40" />
            </g>
          </g>
        </g>
        <g
           id="ytick_3">
          <g
             id="line2d_17">
            <path
               d="M 57.6 175.397269  L 414.72 175.397269  "
               clip-path="url(#p75d660fcb0)"
               style="fill: none; stroke: #b0b0b0; stroke-width: 0.8; stroke-linecap: square"
               id="path40" />
          </g>
          <g
             id="line2d_18">
            <g
               id="g41">
              <use
                 xlink:href="#mbe1ff7e337"
                 x="57.6"
                 y="175.397269"
                 style="stroke: #000000; stroke-width: 0.8"
                 id="use41" />
            </g>
          </g>
          <g
             id="text_9">
            <!-- 20000 -->
            <g
               transform="translate(18.7875 179.196488) scale(0.1 -0.1)"
               id="g46">
              <use
                 xlink:href="#DejaVuSans-32"
                 id="use42" />
              <use
                 xlink:href="#DejaVuSans-30"
                 x="63.623047"
                 id="use43" />
              <use
                 xlink:href="#DejaVuSans-30"
                 x="127.246094"
                 id="use44" />
              <use
                 xlink:href="#DejaVuSans-30"
                 x="190.869141"
                 id="use45" />
              <use
                 xlink:href="#DejaVuSans-30"
                 x="254.492188"
                 id="use46" />
            </g>
          </g>
        </g>
        <g
           id="ytick_4">
          <g
             id="line2d_19">
            <path
               d="M 57.6 124.855903  L 414.72 124.855903  "
               clip-path="url(#p75d660fcb0)"
               style="fill: none; stroke: #b0b0b0; stroke-width: 0.8; stroke-linecap: square"
               id="path46" />
          </g>
          <g
             id="line2d_20">
            <g
               id="g47">
              <use
                 xlink:href="#mbe1ff7e337"
                 x="57.6"
                 y="124.855903"
                 style="stroke: #000000; stroke-width: 0.8"
                 id="use47" />
            </g>
          </g>
          <g
             id="text_10">
            <!-- 30000 -->
            <g
               transform="translate(18.7875 128.655122) scale(0.1 -0.1)"
               id="g52">
              <defs
                 id="defs47">
                <path
                   id="DejaVuSans-33"
                   d="M 2597 2516  Q 3050 2419 3304 2112  Q 3559 1806 3559 1356  Q 3559 666 3084 287  Q 2609 -91 1734 -91  Q 1441 -91 1130 -33  Q 819 25 488 141  L 488 750  Q 750 597 1062 519  Q 1375 441 1716 441  Q 2309 441 2620 675  Q 2931 909 2931 1356  Q 2931 1769 2642 2001  Q 2353 2234 1838 2234  L 1294 2234  L 1294 2753  L 1863 2753  Q 2328 2753 2575 2939  Q 2822 3125 2822 3475  Q 2822 3834 2567 4026  Q 2313 4219 1838 4219  Q 1578 4219 1281 4162  Q 984 4106 628 3988  L 628 4550  Q 988 4650 1302 4700  Q 1616 4750 1894 4750  Q 2613 4750 3031 4423  Q 3450 4097 3450 3541  Q 3450 3153 3228 2886  Q 3006 2619 2597 2516  z "
                   transform="scale(0.015625)" />
              </defs>
              <use
                 xlink:href="#DejaVuSans-33"
                 id="use48" />
              <use
                 xlink:href="#DejaVuSans-30"
                 x="63.623047"
                 id="use49" />
              <use
                 xlink:href="#DejaVuSans-30"
                 x="127.246094"
                 id="use50" />
              <use
                 xlink:href="#DejaVuSans-30"
                 x="190.869141"
                 id="use51" />
              <use
                 xlink:href="#DejaVuSans-30"
                 x="254.492188"
                 id="use52" />
            </g>
          </g>
        </g>
        <g
           id="ytick_5">
          <g
             id="line2d_21">
            <path
               d="M 57.6 74.314538  L 414.72 74.314538  "
               clip-path="url(#p75d660fcb0)"
               style="fill: none; stroke: #b0b0b0; stroke-width: 0.8; stroke-linecap: square"
               id="path52" />
          </g>
          <g
             id="line2d_22">
            <g
               id="g53">
              <use
                 xlink:href="#mbe1ff7e337"
                 x="57.6"
                 y="74.314538"
                 style="stroke: #000000; stroke-width: 0.8"
                 id="use53" />
            </g>
          </g>
          <g
             id="text_11">
            <!-- 40000 -->
            <g
               transform="translate(18.7875 78.113756) scale(0.1 -0.1)"
               id="g58">
              <use
                 xlink:href="#DejaVuSans-34"
                 id="use54" />
              <use
                 xlink:href="#DejaVuSans-30"
                 x="63.623047"
                 id="use55" />
              <use
                 xlink:href="#DejaVuSans-30"
                 x="127.246094"
                 id="use56" />
              <use
                 xlink:href="#DejaVuSans-30"
                 x="190.869141"
                 id="use57" />
              <use
                 xlink:href="#DejaVuSans-30"
                 x="254.492188"
                 id="use58" />
            </g>
          </g>
        </g>
      </g>
      <g
         id="line2d_23">
        <path
           d="m 73.832727,97.619161 2.128883,0.277978 0.177406,0.591334 0.266111,0.252707 0.26611,1.13718 1.862772,0.21733 0.798331,0.13141 0.0887,0.15162 0.177407,0.57617 0.0887,0.10614 0.177406,0.374 0.266111,0.096 0.177406,0.0101 0.620924,0.27292 0.620924,0.0657 1.241848,0.70252 0.177407,0.13141 1.153145,0.33863 0.26611,0.13141 0.177407,0.0758 0.26611,0.17689 0.0887,0.0758 0.177407,0.35885 0.443517,0.19711 0.709627,0.71769 0.177407,0.0809 0.177407,0.14152 0.798331,0.28809 0.26611,0.11624 0.532221,0.12635 0.620924,0.1213 0.26611,-0.0101 0.26611,0.10109 0.975738,0.15667 0.798331,0.25271 0.354813,0.12635 0.177407,0.1769 0.532221,0.0404 0.443517,-0.0101 0.0887,0.005 0.177407,0.15668 0.354814,0.096 0.177407,0.38916 0.177407,0.005 0.177407,0.53574 0.26611,-0.0505 0.177407,-0.30831 0.177407,0.005 0.177406,-0.44982 0.620924,0.12635 0.266111,0.16679 0.26611,-0.0152 0.0887,0.0455 0.177407,0.19712 0.26611,0.12129 0.532221,0.10109 0.177407,0.11624 0.443517,0.13141 0.532221,0.1213 0.443517,0.096 0.26611,0.15162 1.33055,0.10614 1.06444,0.33357 0.53222,0.0809 1.33055,0.45992 0.26611,0.1213 0.26611,0.0556 0.35482,0.0152 0.62092,0.10108 2.12888,0.34874 0.35482,1.44548 0.44351,0.16679 0.17741,1.47075 0.26611,0.23755 0.26611,0.0303 0.26611,-0.0455 0.88703,0.096 1.15315,0.30325 0.17741,0.21733 0.44351,0.15668 0.17741,0.42455 0.35481,0.0101 0.26611,0.17184 0.26612,-0.0354 1.06444,0.31335 0.35481,0.12635 0.70963,0.19712 0.70962,0.091 0.17741,0.27293 0.35482,0.0707 0.35481,0.20722 0.62092,0.0303 0.53222,0.0202 0.17741,0.0809 0.53222,0.0809 0.26611,0.14657 0.35481,0.0253 0.17741,0.14151 1.24185,0.28809 0.17741,0.17689 1.33055,0.22744 0.53222,0.31336 0.17741,0.3083 1.24184,0.10613 2.21759,0.34369 0.26611,0.17689 0.17741,0.0758 0.79833,0.2426 1.68536,0.27292 0.88704,0.0606 0.70962,0.10614 2.30629,0.15668 3.28203,0.091 0.17741,0.57112 0.62092,0.10614 0.35481,0.096 0.79833,0.1213 0.35482,-0.0101 0.17741,-0.12636 0.88703,0.1213 0.17741,0.30325 h 0.1774 l 2.12889,-3.64909 0.62092,0.1112 0.35481,0.75812 0.17741,0.61155 0.35481,0.55595 0.88704,0.20722 0.0887,0.005 0.26611,0.1314 0.26611,0.20722 0.97574,0.22238 0.0887,-0.79855 0.0887,0.0202 0.1774,0.13646 0.17741,0.45487 0.0887,0.2426 0.0887,-0.0354 0.0887,-0.32346 0.0887,0.0505 0.0887,0.0404 0.17741,0.92491 0.35481,0.9249 0.35481,0.17185 0.17741,0.0354 0.62092,0.39928 0.26611,0.46498 1.50796,0.13646 0.26611,1.41011 0.44352,0.36895 0.35481,0.0354 0.17741,0.12635 0.62092,0.11625 0.26611,0.096 0.88704,0.35884 0.1774,0.10108 0.17741,0.32347 0.17741,1.0462 0.44352,1.78917 0.26611,0.0657 1.33055,1.80433 0.44351,0.0708 1.06445,3.361 0.0887,0.0202 0.17741,0.37401 0.1774,0.0556 0.26611,1.34946 0.0887,0.0354 0.1774,0.45992 0.17741,0.0152 0.26611,0.8036 0.44352,0.10614 0.1774,0.20217 0.0887,0.0101 0.1774,0.65703 0.26611,0.62672 h 0.0887 l 0.62092,2.72923 h 0.0887 l 0.26611,1.53646 0.26611,0.0657 0.26611,1.79422 h 0.0887 l 0.17741,0.34368 h 0.0887 l 0.17741,0.28303 0.0887,0.0354 0.17741,0.20217 0.35481,0.37906 0.70963,2.3906 0.26611,2.51191 h 0.0887 l 0.17741,1.34945 0.17741,0.74802 0.26611,1.0462 0.0887,0.005 0.17741,0.17689 0.62092,0.13141 0.17741,0.0657 0.1774,0.56101 0.26611,0.005 0.17741,2.73934 0.0887,0.0505 0.17741,0.50036 0.17741,0.33357 0.26611,0.57617 h 0.0887 l 0.17741,0.14152 0.26611,2.00649 h 0.0887 l 0.17741,0.91985 1.24185,5.06425 0.1774,1.05631 0.26611,0.59639 0.0887,0.005 0.26611,1.2888 h 0.0887 l 0.26611,1.43538 0.17741,0.32851 0.17741,1.12708 0.35481,1.07147 0.17741,0.0758 0.1774,0.86931 0.53222,1.1574 0.17741,0.16678 0.17741,0.71769 0.1774,0.27798 0.35482,0.091 0.26611,1.76389 0.0887,0.0809 0.17741,0.26787 0.17741,0.005 0.1774,0.56607 0.44352,0.97039 h 0.0887 l 0.44352,1.42527 0.62092,0.0152 0.17741,0.19206 0.26611,0.0607 0.35481,0.0101 0.17741,0.10613 0.26611,1.08159 0.35482,0.15162 0.35481,0.0152 0.17741,0.51553 0.0887,0.005 0.26611,0.89458 0.0887,0.005 0.35482,1.99638 h 0.1774 l 0.17741,0.52563 0.44352,0.0455 0.1774,2.42598 0.17741,1.37473 0.44352,2.46642 0.0887,0.0101 0.17741,0.81371 0.26611,0.0657 0.26611,0.37906 0.17741,0.80866 0.0887,0.24765 0.17741,0.78339 h 0.0887 l 0.17741,0.37401 0.1774,-0.0152 0.26611,0.29314 0.44352,0.0101 0.17741,0.31841 0.17741,0.0859 0.1774,0.53574 0.17741,0.27293 0.17741,0.45992 0.1774,0.0354 0.17741,0.61661 0.26611,0.38916 0.35481,0.0859 0.26611,0.25777 0.26611,0.26281 0.26611,1.04621 0.0887,0.096 0.26611,1.12201 h 0.0887 l 0.17741,0.12636 0.1774,0.10108 0.53223,0.65198 0.0887,0.0152 0.17741,0.24765 0.26611,0.091 0.26611,0.32852 0.1774,0.25271 0.17741,0.33863 0.0887,0.0152 0.17741,0.16173 0.53222,0.11119 0.17741,0.15163 0.35481,0.0809 0.62093,0.81372 0.26611,0.16678 h 0.1774 l 0.0887,-0.13646 0.0887,0.0657 0.53222,0.66209 0.26611,0.0708 0.35481,0.0657 0.35482,0.13141 0.79833,0.20216 0.44352,0.4195 0.97573,0.091 0.17741,0.2426 0.35481,0.0101 0.17741,0.12635 0.53222,0.0101 0.17741,-0.16173 h 0.0887 l 0.17741,0.16173 h 0.0887 l 0.17741,2.09747 0.26611,0.62671 h 0.0887 l 0.26611,0.50036 0.0887,0.005 0.1774,0.25271 0.17741,-0.0253 0.17741,0.44982 0.26611,0.65198 h 0.0887 l 0.17741,0.47004 0.1774,-0.0354 0.0887,-0.13646 0.35481,0.84404 0.26611,0.44476 h 0.0887 l 0.1774,0.3639 h 0.0887 l 0.1774,0.44476 0.17741,0.16679 0.0887,0.0101 0.0887,-0.1769 0.0887,0.0505 0.35481,0.38917 0.17741,-0.0708 0.17741,-0.0809 0.1774,0.0202 0.17741,0.17184 0.26611,0.27293 0.0887,0.41949 0.0887,-0.15668 0.0887,0.0556 h 0.0887 l 0.17741,0.27798 0.17741,0.73285 0.97574,-0.0809 0.1774,-0.15162 0.0887,-0.0354 0.35481,0.37906 h 0.0887 l 0.17741,1.01082 0.17741,0.096 0.26611,0.0606 0.62092,0.10109 0.17741,-0.0758 0.1774,0.13646 0.17741,-0.14151 0.62093,-0.005 0.1774,0.14152 0.26611,-0.38411 0.17741,-4.55378 0.26611,0.0859 2.92721,0.0859 0.0887,0.091 0.1774,1.28376 0.17741,1.43032 0.17741,0.11119 h 0.35481 l 0.17741,0.11119 0.88703,0.187 0.26611,0.0505 0.26611,0.0809 0.44352,0.15668 0.26611,0.64693 h 0.0887 l 0.17741,0.2527 0.26611,0.11119 0.17741,0.21228 1.33055,0.22743 0.17741,0.26282 0.1774,0.0809 0.17741,-0.005 0.17741,0.27292 0.26611,0.30325 0.0887,0.005 0.17741,0.17689 0.26611,0.0253 0.1774,0.20722 1.95148,0.33357 0.88703,0.12636 0.17741,0.18195 0.0887,0.005 0.17741,0.13141 0.70963,0.0101 h 0.0887 l 0.0887,0.187 0.1774,-0.18195 1.50796,0.10614 0.44352,0.096 0.26611,0.091 0.62092,0.31841 9.93479,0.45993 1.50795,0.0152 1.06444,0.0202 6.74147,-0.74802 0.79833,-0.19711 0.0887,-0.0455 0.0887,0.0859 0.0887,-0.091 0.0887,-1.68808 0.0887,0.0303 1.33055,0.0455 0.62093,0.39423 0.53222,0.0404 0.44352,0.21227 0.70962,0.37401 0.44352,0.0556 0.17741,-0.3083 1.50796,0.15668 0.1774,0.17184 4.61258,0.10614 0.0887,0.0253 0.17741,0.0303 0.26611,0.0202 0.17741,0.11119 0.26611,-0.005 0.26611,-0.096 0.17741,0.1314 0.26611,-0.10613 0.0887,0.11119 0.0887,-0.11119 0.62093,0.0556 3.37073,0.10614 2.48369,0.21227 0.35482,-0.0455 5.1448,0.091 0.35481,0.0303 2.6611,0.0455 0.26611,-0.005 0.0887,0.005 1.15314,0.0253 0.44352,0.005 0.44352,-0.0152 0.53222,0.0152 0.1774,-0.45487 0.44352,-0.0404 4.52388,0.10614 7.8059,0.54079 0.26611,0.0303 0.70962,0.0505 2.74981,0.2426 0.62092,0.15162 1.77407,0.096 0.62093,0.0253 7.00757,0.0859 0.1774,0.0809 3.63684,0.0708 0.17741,0.0758 0.70963,0.0708 0.26611,0.37401 0.26611,0.36895 0.44352,0.0354 3.72554,0.091 0.44352,0.0404 0.79833,0.0152 4.70128,0.10614 2.83851,0.0505 1.68537,0.0152 4.16906,0.0556 0.1774,-2.29963 1.50796,0.10613 3.10462,0.42455 1.59666,0.0455 0.53222,0.005 0.44352,0.13141 0.26611,0.0354 0.35481,0.0202 0.17741,-0.58122 0.62093,0.0809 9.75737,0.10613 0.0887,0.0303 7.8059,0.20216 1.24185,0.0303 4.61257,0.10613 8.24942,0.50036 0.0887,-0.87436 0.1774,0.87942 0.35482,0.0354 5.58831,0.10613 2.30629,0.0202 1.06444,0.0505 4.96739,0.0556 0.17741,2.21371 0.26611,0.0354 0.17741,-0.29314 1.33055,0.0404 1.06444,0.0606 0.17741,0.41949 1.77407,0.10109 0.88703,0.10108 0.17741,0.80866 5.94313,0.10614 2.6611,0.0404 h 4.70128 v 0"
           clip-path="url(#p75d660fcb0)"
           style="fill:none;stroke:#ff0000;stroke-width:1.5;stroke-linecap:square"
           id="path58"
           sodipodi:nodetypes="ccccccccccccccccccccccccccccccccccccccccccccccccccccccccccccccccccccccccccccccccccccccccccccccccccccccccccccccccccccccccccccccccccccccccccccccccccccccccccccccccccccccccccccccccccccccccccccccccccccccccccccccccccccccccccccccccccccccccccccccccccccccccccccccccccccccccccccccccccccccccccccccccccccccccccccccccccccccccccccccccccccccccccccccccccccccccccccccccccccccccccccccccccccccccccccccccccccccccccccccccccccccccccccccccccccccccccccccccccccccccccccccccccccccccccccccccccccccccccccccccccccccccccccccccccccccccccccccc" />
      </g>
      <g
         id="patch_3">
        <path
           d="M 57.6 276.48  L 57.6 41.472  "
           style="fill: none; stroke: #000000; stroke-width: 0.8; stroke-linejoin: miter; stroke-linecap: square"
           id="path59" />
      </g>
      <g
         id="patch_4">
        <path
           d="M 414.72 276.48  L 414.72 41.472  "
           style="fill: none; stroke: #000000; stroke-width: 0.8; stroke-linejoin: miter; stroke-linecap: square"
           id="path60" />
      </g>
      <g
         id="patch_5">
        <path
           d="M 57.6 276.48  L 414.72 276.48  "
           style="fill: none; stroke: #000000; stroke-width: 0.8; stroke-linejoin: miter; stroke-linecap: square"
           id="path61" />
      </g>
      <g
         id="patch_6">
        <path
           d="M 57.6 41.472  L 414.72 41.472  "
           style="fill: none; stroke: #000000; stroke-width: 0.8; stroke-linejoin: miter; stroke-linecap: square"
           id="path62" />
      </g>
      <g
         id="text_12">
        <!--  monument, megalith, museum - Historical monument not integrated -->
        <g
           transform="matrix(0.12,0,0,-0.12,-80.87034,35.472)"
           id="g125">
          <defs
             id="defs62">
            <path
               id="DejaVuSans-20"
               transform="scale(0.015625)"
               d="" />
            <path
               id="DejaVuSans-6d"
               d="m 3328,2828 q 216,388 516,572 300,184 706,184 547,0 844,-383 297,-382 297,-1088 V 0 h -578 v 2094 q 0,503 -179,746 -178,244 -543,244 -447,0 -707,-297 -259,-296 -259,-809 V 0 h -578 v 2094 q 0,506 -178,748 -178,242 -550,242 -441,0 -701,-298 -259,-298 -259,-808 V 0 H 581 v 3500 h 578 v -544 q 197,322 472,475 275,153 653,153 382,0 649,-194 267,-193 395,-562 z"
               transform="scale(0.015625)" />
            <path
               id="DejaVuSans-6f"
               d="m 1959,3097 q -462,0 -731,-361 -269,-361 -269,-989 0,-628 267,-989 268,-361 733,-361 460,0 728,362 269,363 269,988 0,622 -269,986 -268,364 -728,364 z m 0,487 q 750,0 1178,-488 429,-487 429,-1349 Q 3566,888 3137,398 2709,-91 1959,-91 1206,-91 779,398 353,888 353,1747 q 0,862 426,1349 427,488 1180,488 z"
               transform="scale(0.015625)" />
            <path
               id="DejaVuSans-6e"
               d="M 3513,2113 V 0 h -575 v 2094 q 0,497 -194,743 -194,247 -581,247 -466,0 -735,-297 -269,-296 -269,-809 V 0 H 581 v 3500 h 578 v -544 q 207,316 486,472 280,156 646,156 603,0 912,-373 310,-373 310,-1098 z"
               transform="scale(0.015625)" />
            <path
               id="DejaVuSans-75"
               d="m 544,1381 v 2119 h 575 V 1403 q 0,-497 193,-746 194,-248 582,-248 465,0 735,297 271,297 271,810 v 1984 h 575 V 0 H 2900 V 538 Q 2691,219 2414,64 2138,-91 1772,-91 1169,-91 856,284 544,659 544,1381 Z m 1447,2203 z"
               transform="scale(0.015625)" />
            <path
               id="DejaVuSans-65"
               d="M 3597,1894 V 1613 H 953 q 38,-594 358,-905 320,-311 892,-311 331,0 642,81 311,81 618,244 V 178 Q 3153,47 2828,-22 2503,-91 2169,-91 1331,-91 842,396 353,884 353,1716 q 0,859 464,1363 464,505 1252,505 706,0 1117,-455 411,-454 411,-1235 z m -575,169 q -6,471 -264,752 -258,282 -683,282 -481,0 -770,-272 -289,-272 -333,-766 z"
               transform="scale(0.015625)" />
            <path
               id="DejaVuSans-74"
               d="M 1172,4494 V 3500 H 2356 V 3053 H 1172 V 1153 q 0,-428 117,-550 117,-122 477,-122 h 590 V 0 H 1766 Q 1100,0 847,248 594,497 594,1153 V 3053 H 172 v 447 h 422 v 994 z"
               transform="scale(0.015625)" />
            <path
               id="DejaVuSans-2c"
               d="m 750,794 h 659 V 256 L 897,-744 H 494 L 750,256 Z"
               transform="scale(0.015625)" />
            <path
               id="DejaVuSans-67"
               d="m 2906,1791 q 0,625 -258,968 -257,344 -723,344 -462,0 -720,-344 -258,-343 -258,-968 0,-622 258,-966 258,-344 720,-344 466,0 723,344 258,344 258,966 z M 3481,434 q 0,-893 -397,-1329 -396,-436 -1215,-436 -303,0 -572,45 -269,45 -522,139 v 559 q 253,-137 500,-202 247,-66 503,-66 566,0 847,295 281,295 281,892 V 616 Q 2728,306 2450,153 2172,0 1784,0 1141,0 747,490 353,981 353,1791 q 0,812 394,1302 394,491 1037,491 388,0 666,-153 278,-153 456,-462 v 531 h 575 z"
               transform="scale(0.015625)" />
            <path
               id="DejaVuSans-61"
               d="m 2194,1759 q -697,0 -966,-159 -269,-159 -269,-544 0,-306 202,-486 202,-179 548,-179 479,0 768,339 289,339 289,901 v 128 z m 1147,238 V 0 H 2766 V 531 Q 2569,213 2275,61 1981,-91 1556,-91 q -537,0 -855,302 -317,302 -317,808 0,590 395,890 396,300 1180,300 h 807 v 57 q 0,397 -261,614 -261,217 -733,217 -300,0 -585,-72 -284,-72 -546,-216 v 532 q 315,122 612,182 297,61 578,61 760,0 1135,-394 375,-393 375,-1193 z"
               transform="scale(0.015625)" />
            <path
               id="DejaVuSans-6c"
               d="m 603,4863 h 575 V 0 H 603 Z"
               transform="scale(0.015625)" />
            <path
               id="DejaVuSans-69"
               d="m 603,3500 h 575 V 0 H 603 Z m 0,1363 h 575 V 4134 H 603 Z"
               transform="scale(0.015625)" />
            <path
               id="DejaVuSans-68"
               d="M 3513,2113 V 0 h -575 v 2094 q 0,497 -194,743 -194,247 -581,247 -466,0 -735,-297 -269,-296 -269,-809 V 0 H 581 v 4863 h 578 V 2956 q 207,316 486,472 280,156 646,156 603,0 912,-373 310,-373 310,-1098 z"
               transform="scale(0.015625)" />
            <path
               id="DejaVuSans-73"
               d="m 2834,3397 v -544 q -243,125 -506,187 -262,63 -544,63 -428,0 -642,-131 -214,-131 -214,-394 0,-200 153,-314 153,-114 616,-217 l 197,-44 q 612,-131 870,-370 258,-239 258,-667 0,-488 -386,-773 Q 2250,-91 1575,-91 1294,-91 989,-36 684,19 347,128 v 594 q 319,-166 628,-249 309,-82 613,-82 406,0 624,139 219,139 219,392 0,234 -158,359 -157,125 -692,241 l -200,47 q -534,112 -772,345 -237,233 -237,639 0,494 350,762 350,269 994,269 318,0 599,-47 282,-46 519,-140 z"
               transform="scale(0.015625)" />
            <path
               id="DejaVuSans-2d"
               d="M 313,2009 H 1997 V 1497 H 313 Z"
               transform="scale(0.015625)" />
            <path
               id="DejaVuSans-48"
               d="m 628,4666 h 631 V 2753 h 2294 v 1913 h 631 V 0 H 3553 V 2222 H 1259 V 0 H 628 Z"
               transform="scale(0.015625)" />
            <path
               id="DejaVuSans-72"
               d="m 2631,2963 q -97,56 -211,82 -114,27 -251,27 -488,0 -749,-317 -261,-317 -261,-911 V 0 H 581 v 3500 h 578 v -544 q 182,319 472,473 291,155 707,155 59,0 131,-8 72,-7 159,-23 z"
               transform="scale(0.015625)" />
            <path
               id="DejaVuSans-63"
               d="m 3122,3366 v -538 q -244,135 -489,202 -245,67 -495,67 -560,0 -870,-355 -309,-354 -309,-995 0,-641 309,-996 310,-354 870,-354 250,0 495,67 245,67 489,202 V 134 Q 2881,22 2623,-34 2366,-91 2075,-91 1284,-91 818,406 353,903 353,1747 q 0,856 470,1346 471,491 1290,491 265,0 518,-55 253,-54 491,-163 z"
               transform="scale(0.015625)" />
            <path
               id="DejaVuSans-64"
               d="m 2906,2969 v 1894 h 575 V 0 H 2906 V 525 Q 2725,213 2448,61 2172,-91 1784,-91 1150,-91 751,415 353,922 353,1747 q 0,825 398,1331 399,506 1033,506 388,0 664,-152 277,-151 458,-463 z M 947,1747 q 0,-634 261,-995 261,-361 717,-361 456,0 718,361 263,361 263,995 0,634 -263,995 -262,361 -718,361 -456,0 -717,-361 -261,-361 -261,-995 z"
               transform="scale(0.015625)" />
          </defs>
          <use
             xlink:href="#DejaVuSans-20"
             x="1650.7324"
             id="use91" />
          <use
             xlink:href="#DejaVuSans-48"
             x="1682.5195"
             id="use92" />
          <use
             xlink:href="#DejaVuSans-69"
             x="1757.7148"
             id="use93" />
          <use
             xlink:href="#DejaVuSans-73"
             x="1785.498"
             id="use94" />
          <use
             xlink:href="#DejaVuSans-74"
             x="1837.5977"
             id="use95" />
          <use
             xlink:href="#DejaVuSans-6f"
             x="1876.8066"
             id="use96" />
          <use
             xlink:href="#DejaVuSans-72"
             x="1937.9883"
             id="use97" />
          <use
             xlink:href="#DejaVuSans-69"
             x="1979.1016"
             id="use98" />
          <use
             xlink:href="#DejaVuSans-63"
             x="2006.8848"
             id="use99" />
          <use
             xlink:href="#DejaVuSans-61"
             x="2061.8652"
             id="use100" />
          <use
             xlink:href="#DejaVuSans-6c"
             x="2123.1445"
             id="use101" />
          <use
             xlink:href="#DejaVuSans-20"
             x="2150.9277"
             id="use102" />
          <use
             xlink:href="#DejaVuSans-6d"
             x="2182.7148"
             id="use103" />
          <use
             xlink:href="#DejaVuSans-6f"
             x="2280.127"
             id="use104" />
          <use
             xlink:href="#DejaVuSans-6e"
             x="2341.3086"
             id="use105" />
          <use
             xlink:href="#DejaVuSans-75"
             x="2404.6875"
             id="use106" />
          <use
             xlink:href="#DejaVuSans-6d"
             x="2468.0664"
             id="use107" />
          <use
             xlink:href="#DejaVuSans-65"
             x="2565.4785"
             id="use108" />
          <use
             xlink:href="#DejaVuSans-6e"
             x="2627.002"
             id="use109" />
          <use
             xlink:href="#DejaVuSans-74"
             x="2690.3809"
             id="use110" />
          <use
             xlink:href="#DejaVuSans-20"
             x="2729.5898"
             id="use111" />
          <use
             xlink:href="#DejaVuSans-6e"
             x="2761.377"
             id="use112" />
          <use
             xlink:href="#DejaVuSans-6f"
             x="2824.7559"
             id="use113" />
          <use
             xlink:href="#DejaVuSans-74"
             x="2885.9375"
             id="use114" />
          <use
             xlink:href="#DejaVuSans-20"
             x="2925.1465"
             id="use115" />
          <use
             xlink:href="#DejaVuSans-69"
             x="2956.9336"
             id="use116" />
          <use
             xlink:href="#DejaVuSans-6e"
             x="2984.7168"
             id="use117" />
          <use
             xlink:href="#DejaVuSans-74"
             x="3048.0957"
             id="use118" />
          <use
             xlink:href="#DejaVuSans-65"
             x="3087.3047"
             id="use119" />
          <use
             xlink:href="#DejaVuSans-67"
             x="3148.8281"
             id="use120" />
          <use
             xlink:href="#DejaVuSans-72"
             x="3212.3047"
             id="use121" />
          <use
             xlink:href="#DejaVuSans-61"
             x="3253.418"
             id="use122" />
          <use
             xlink:href="#DejaVuSans-74"
             x="3314.6973"
             id="use123" />
          <use
             xlink:href="#DejaVuSans-65"
             x="3353.9062"
             id="use124" />
          <use
             xlink:href="#DejaVuSans-64"
             x="3415.4297"
             id="use125" />
        </g>
      </g>
    </g>
  </g>
  <defs
     id="defs125">
    <clipPath
       id="p75d660fcb0">
      <rect
         x="57.6"
         y="41.472"
         width="357.12"
         height="235.008"
         id="rect125" />
    </clipPath>
  </defs>
</svg>
